<?xml version="1.0" encoding="UTF-8"?>
<!DOCTYPE svg PUBLIC "-//W3C//DTD SVG 1.1//EN" "http://www.w3.org/Graphics/SVG/1.1/DTD/svg11.dtd">
<!-- Creator: CorelDRAW -->
<svg xmlns="http://www.w3.org/2000/svg" xml:space="preserve" width="210.59mm" height="178.092mm" version="1.1" style="shape-rendering:geometricPrecision; text-rendering:geometricPrecision; image-rendering:optimizeQuality; fill-rule:evenodd; clip-rule:evenodd"
viewBox="0 0 8898.42 7525.22"
 xmlns:xlink="http://www.w3.org/1999/xlink"
 xmlns:xodm="http://www.corel.com/coreldraw/odm/2003">
 <defs>
  <style type="text/css">
   <![CDATA[
    .fil1 {fill:none;fill-rule:nonzero}
    .fil3 {fill:#020202;fill-rule:nonzero}
    .fil0 {fill:#5F5D5E;fill-rule:nonzero}
    .fil2 {fill:white;fill-rule:nonzero}
   ]]>
  </style>
   <clipPath id="id0" style="clip-rule:nonzero">
    <path d="M570.18 0l7758.07 0c151.22,0 296.24,60.07 403.17,167 106.93,106.93 167,251.96 167,403.17l0 6384.87c0,151.22 -60.07,296.25 -167,403.18 -106.93,106.93 -251.96,167 -403.17,167l-7758.07 0c-151.22,0 -296.25,-60.07 -403.18,-167 -106.93,-106.93 -167,-251.96 -167,-403.18l0 -6384.87c0,-151.22 60.07,-296.24 167,-403.17 106.93,-106.93 251.96,-167 403.18,-167z"/>
   </clipPath>
    <clipPath id="id1">
     <path d="M570.18 0l7758.07 0c151.22,0 296.24,60.07 403.17,167 106.93,106.93 167,251.96 167,403.17l0 6384.87c0,151.22 -60.07,296.25 -167,403.18 -106.93,106.93 -251.96,167 -403.17,167l-7758.07 0c-151.22,0 -296.25,-60.07 -403.18,-167 -106.93,-106.93 -167,-251.96 -167,-403.18l0 -6384.87c0,-151.22 60.07,-296.24 167,-403.17 106.93,-106.93 251.96,-167 403.18,-167z"/>
    </clipPath>
    <clipPath id="id2">
     <path d="M570.18 0l7758.07 0c151.22,0 296.24,60.07 403.17,167 106.93,106.93 167,251.96 167,403.17l0 6384.87c0,151.22 -60.07,296.25 -167,403.18 -106.93,106.93 -251.96,167 -403.17,167l-7758.07 0c-151.22,0 -296.25,-60.07 -403.18,-167 -106.93,-106.93 -167,-251.96 -167,-403.18l0 -6384.87c0,-151.22 60.07,-296.24 167,-403.17 106.93,-106.93 251.96,-167 403.18,-167z"/>
    </clipPath>
    <clipPath id="id3">
     <path d="M570.18 0l7758.07 0c151.22,0 296.24,60.07 403.17,167 106.93,106.93 167,251.96 167,403.17l0 6384.87c0,151.22 -60.07,296.25 -167,403.18 -106.93,106.93 -251.96,167 -403.17,167l-7758.07 0c-151.22,0 -296.25,-60.07 -403.18,-167 -106.93,-106.93 -167,-251.96 -167,-403.18l0 -6384.87c0,-151.22 60.07,-296.24 167,-403.17 106.93,-106.93 251.96,-167 403.18,-167z"/>
    </clipPath>
    <clipPath id="id4">
     <path d="M570.18 0l7758.07 0c151.22,0 296.24,60.07 403.17,167 106.93,106.93 167,251.96 167,403.17l0 6384.87c0,151.22 -60.07,296.25 -167,403.18 -106.93,106.93 -251.96,167 -403.17,167l-7758.07 0c-151.22,0 -296.25,-60.07 -403.18,-167 -106.93,-106.93 -167,-251.96 -167,-403.18l0 -6384.87c0,-151.22 60.07,-296.24 167,-403.17 106.93,-106.93 251.96,-167 403.18,-167z"/>
    </clipPath>
 </defs>
 <g id="Camada_x0020_1">
  <metadata id="CorelCorpID_0Corel-Layer"/>
  <path class="fil0" d="M570.18 0l7758.07 0c151.22,0 296.24,60.07 403.17,167 106.93,106.93 167,251.96 167,403.17l0 6384.87c0,151.22 -60.07,296.25 -167,403.18 -106.93,106.93 -251.96,167 -403.17,167l-7758.07 0c-151.22,0 -296.25,-60.07 -403.18,-167 -106.93,-106.93 -167,-251.96 -167,-403.18l0 -6384.87c0,-151.22 60.07,-296.24 167,-403.17 106.93,-106.93 251.96,-167 403.18,-167z"/>
  <g style="clip-path:url(#id0)">
   <g id="_2761007441792">
   </g>
   <g style="clip-path:url(#id1)">
   </g>
   <g style="clip-path:url(#id2)">
    <image x="-2112.77" y="-124.04" width="11307.42" height="7731.68" xlink:href="banner-1_Images\banner-1_ImgID1.png"/>
   </g>
   <g style="clip-path:url(#id3)">
   </g>
   <g style="clip-path:url(#id4)">
   </g>
  </g>
  <path class="fil1" d="M570.18 0l7758.07 0c151.22,0 296.24,60.07 403.17,167 106.93,106.93 167,251.96 167,403.17l0 6384.87c0,151.22 -60.07,296.25 -167,403.18 -106.93,106.93 -251.96,167 -403.17,167l-7758.07 0c-151.22,0 -296.25,-60.07 -403.18,-167 -106.93,-106.93 -167,-251.96 -167,-403.18l0 -6384.87c0,-151.22 60.07,-296.24 167,-403.17 106.93,-106.93 251.96,-167 403.18,-167z"/>
  <polygon class="fil2" points="2599.89,2138.42 2488.99,2138.42 2350.36,1029.39 2350.36,2138.42 2267.18,2138.42 2267.18,641.23 2378.09,641.23 2516.72,1750.26 2516.72,641.23 2599.89,641.23 "/>
  <path class="fil2" d="M3139.14 2009.14c0,6.77 -0.85,19.05 -2.54,36.83 -1.69,17.78 -7.62,35.98 -17.78,54.61 -10.16,18.63 -26.25,35.14 -48.26,49.53 -22.01,14.4 -53.34,21.59 -93.98,21.59 -40.64,0 -71.96,-7.2 -93.98,-21.59 -22.01,-14.39 -38.11,-30.9 -48.26,-49.53 -10.16,-18.63 -16.09,-36.83 -17.78,-54.61 -1.69,-17.78 -2.54,-30.06 -2.54,-36.83l0 -1192.12c0,-4.52 0.28,-11.29 0.85,-20.32 0.57,-9.03 2.26,-19.05 5.08,-30.06 2.82,-11.01 7.62,-22.29 14.39,-33.87 6.77,-11.57 16.09,-22.15 27.94,-31.75 11.85,-9.6 27.09,-17.36 45.72,-23.29 18.62,-5.92 41.49,-8.89 68.58,-8.89 27.09,0 49.95,2.96 68.58,8.89 18.63,5.93 33.87,13.69 45.72,23.29 11.85,9.6 21.17,20.18 27.94,31.75 6.77,11.57 11.57,22.86 14.4,33.87 2.82,11.01 4.51,21.03 5.08,30.06 0.57,9.03 0.85,15.81 0.85,20.32l0 1192.12zm-216.75 0c0,6.77 0.28,14.81 0.85,24.13 0.57,9.31 2.54,18.2 5.93,26.67 3.39,8.46 8.75,15.66 16.09,21.59 7.34,5.93 17.78,8.89 31.33,8.89 13.55,0 23.99,-2.96 31.33,-8.89 7.34,-5.93 12.7,-13.12 16.09,-21.59 3.39,-8.47 5.36,-17.36 5.93,-26.67 0.56,-9.32 0.85,-17.36 0.85,-24.13l0 -1192.12c0,-6.77 -0.28,-14.11 -0.85,-22.01 -0.57,-7.9 -2.54,-15.1 -5.93,-21.59 -3.39,-6.49 -8.75,-11.99 -16.09,-16.51 -7.34,-4.51 -17.78,-6.77 -31.33,-6.77 -13.55,0 -23.99,2.26 -31.33,6.77 -7.34,4.52 -12.7,10.02 -16.09,16.51 -3.39,6.49 -5.36,13.69 -5.93,21.59 -0.56,7.9 -0.85,15.24 -0.85,22.01l0 1192.12z"/>
  <path class="fil2" d="M2084.79 2136.08l-110.58 0 -13.82 -359.37 -82.07 0 -14.68 359.37 -110.58 0 82.93 -1492.75 165.86 0 82.93 1492.75zm-138.22 -774.02l-27.64 -663.44 -27.64 663.44 -12.96 331.72 82.07 0 -13.82 -331.72z"/>
  <polygon class="fil2" points="1420.9,594.62 1420.9,2040.86 1534.33,2040.86 1534.33,2125.94 1307.47,2125.94 1307.47,594.62 "/>
  <path class="fil2" d="M999.68 1246.85c0,35.44 -6.5,62.77 -19.49,81.97 -13,19.2 -30.13,33.23 -51.4,42.09 -21.27,8.86 -45.49,14.03 -72.67,15.5 -27.17,1.48 -54.94,2.22 -83.3,2.22l0 737.3 -113.43 0 0 -1531.32 113.43 0c56.71,0 100.43,4.72 131.15,14.18 30.72,9.45 53.17,21.27 67.35,35.45 14.18,14.18 22.45,29.54 24.82,46.08 2.36,16.54 3.54,31.9 3.54,46.08l0 510.44zm-113.43 -510.44c0,-14.18 -1.92,-25.11 -5.76,-32.79 -3.84,-7.68 -10.19,-13.29 -19.05,-16.84 -8.86,-3.55 -20.53,-5.61 -35,-6.2 -14.47,-0.59 -32.35,-0.88 -53.61,-0.88l0 623.87c14.18,0 28.06,-0.3 41.65,-0.89 13.58,-0.59 25.7,-2.66 36.33,-6.2 10.63,-3.55 19.2,-9.16 25.7,-16.84 6.49,-7.68 9.74,-18.61 9.74,-32.79l0 -510.44z"/>
  <path class="fil2" d="M1921.85 3385.08l-72.03 0 -9 -234.1 -53.46 0 -9.57 234.1 -72.03 0 54.02 -972.43 108.05 0 54.02 972.43zm-90.04 -504.22l-18.01 -432.19 -18 432.19 -8.44 216.1 53.46 0 -9 -216.1z"/>
  <polygon class="fil2" points="2314.12,3385.08 2242.09,3385.08 2152.05,2664.76 2152.05,3385.08 2098.03,3385.08 2098.03,2412.65 2170.06,2412.65 2260.1,3132.97 2260.1,2412.65 2314.12,2412.65 "/>
  <path class="fil2" d="M2580.35 3295.04c0,4.5 0.19,9.85 0.56,16.04 0.38,6.19 1.69,12.1 3.94,17.73 2.25,5.62 5.81,10.41 10.69,14.35 4.88,3.94 11.82,5.91 20.82,5.91 9,0 15.95,-1.97 20.82,-5.91 4.88,-3.94 8.44,-8.73 10.69,-14.35 2.25,-5.63 3.57,-11.54 3.94,-17.73 0.38,-6.19 0.57,-11.54 0.57,-16.04l0 -882.39 72.03 0 0 882.39c0,4.5 -0.56,12.66 -1.69,24.48 -1.13,11.82 -5.07,23.92 -11.82,36.3 -6.75,12.38 -17.44,23.35 -32.08,32.92 -14.63,9.57 -35.45,14.35 -62.46,14.35 -27.01,0 -47.83,-4.78 -62.46,-14.35 -14.64,-9.57 -25.33,-20.54 -32.08,-32.92 -6.75,-12.38 -10.69,-24.48 -11.82,-36.3 -1.12,-11.81 -1.69,-19.98 -1.69,-24.48l0 -882.39 72.04 0 0 882.39z"/>
  <path class="fil2" d="M3116.69 3385.08l-72.03 0 -9 -234.1 -53.46 0 -9.57 234.1 -72.03 0 54.02 -972.43 108.05 0 54.02 972.43zm-90.04 -504.22l-18.01 -432.19 -18 432.19 -8.44 216.1 53.46 0 -9 -216.1z"/>
  <polygon class="fil2" points="3364.91,2412.65 3364.91,3331.06 3436.94,3331.06 3436.94,3385.08 3292.88,3385.08 3292.88,2412.65 "/>
  <path class="fil2" d="M704.01 3847.87l0 146.66 -41 0 0 -352.65 96.73 0c43.26,0 75.22,8.28 95.88,24.85 20.67,16.56 31,41.49 31,74.77 0,46.64 -23.64,78.15 -70.92,94.55l95.76 158.48 -48.48 0 -85.39 -146.66 -73.57 0zm0 -35.21l56.2 0c28.94,0 50.17,-5.75 63.68,-17.25 13.5,-11.5 20.26,-28.74 20.26,-51.74 0,-23.32 -6.87,-40.12 -20.62,-50.41 -13.75,-10.29 -35.82,-15.44 -66.21,-15.44l-53.31 0 0 134.83z"/>
  <path class="fil2" d="M1169.79 3886.22c0,21.87 -8.2,39.92 -24.6,54.15 -16.4,14.23 -39.32,23.2 -68.75,26.9l0 55.96 -31.12 0 0 -53.79c-18.01,0 -35.46,-1.41 -52.34,-4.22 -16.88,-2.81 -30.71,-6.71 -41.49,-11.7l0 -37.63c13.35,5.95 28.75,10.81 46.19,14.59 17.45,3.78 33.33,5.67 47.64,5.67l0 -106.13c-32.96,-10.45 -56.08,-22.59 -69.34,-36.42 -13.27,-13.83 -19.9,-31.68 -19.9,-53.55 0,-21.06 8.16,-38.35 24.48,-51.86 16.32,-13.5 37.91,-21.71 64.76,-24.6l0 -43.9 31.12 0 0 43.42c29.59,0.81 58.13,6.76 85.63,17.85l-12.54 31.6c-23.96,-9.49 -48.32,-15.12 -73.09,-16.88l0 104.69c25.25,8.04 44.14,15.88 56.68,23.51 12.54,7.64 21.79,16.4 27.74,26.29 5.95,9.89 8.92,21.91 8.92,36.06zm-41.01 3.14c0,-11.58 -3.57,-20.95 -10.73,-28.1 -7.15,-7.16 -21.03,-14.27 -41.61,-21.35l0 93.83c34.89,-4.83 52.34,-19.62 52.34,-44.38zm-131.94 -149.79c0,12.22 3.62,22.03 10.86,29.43 7.24,7.39 19.78,14.39 37.63,20.98l0 -93.35c-15.92,2.57 -27.98,7.6 -36.18,15.08 -8.2,7.48 -12.3,16.76 -12.3,27.86z"/>
  <path class="fil2" d="M1534.66 3864.52c79.35,0 143.31,18.04 191.86,54.13 48.56,36.09 72.83,84.74 72.83,145.95 0,42.32 -11.71,80.01 -35.14,113.08 -23.43,33.06 -61.21,62.63 -113.36,88.71 61.97,33.25 106.46,67.92 133.48,104.01 27.01,36.09 40.53,75.67 40.53,118.75 0,68.02 -26.64,122.71 -79.92,164.09 -53.28,41.38 -123.38,62.06 -210.28,62.06 -90.69,0 -161.92,-19.27 -213.69,-57.82 -51.77,-38.54 -77.66,-93.14 -77.66,-163.8 0,-47.24 12.57,-89.18 37.7,-125.83 25.13,-36.65 65.47,-68.96 121.01,-96.92 -47.23,-29.85 -81.24,-61.78 -102.02,-95.79 -20.79,-34.01 -31.18,-71.22 -31.18,-111.66 0,-59.33 24.56,-107.31 73.68,-143.97 49.12,-36.65 113.17,-54.98 192.15,-54.98zm-129.24 618.95c0,32.5 11.34,57.81 34.01,75.95 22.67,18.14 53.65,27.21 92.96,27.21 43.45,0 75.95,-9.36 97.49,-28.06 21.54,-18.7 32.31,-43.36 32.31,-73.96 0,-25.32 -10.67,-49.03 -32.02,-71.14 -21.35,-22.11 -56.03,-45.63 -104.01,-70.57 -80.49,37.03 -120.73,83.89 -120.73,140.57zm128.1 -490.85c-29.85,0 -53.94,7.65 -72.27,22.96 -18.33,15.3 -27.49,35.8 -27.49,61.5 0,22.67 7.28,42.98 21.82,60.93 14.55,17.95 40.9,36.37 79.07,55.26 37.03,-17.38 62.91,-35.14 77.65,-53.28 14.73,-18.14 22.1,-39.11 22.1,-62.92 0,-26.07 -9.44,-46.67 -28.34,-61.78 -18.89,-15.11 -43.07,-22.67 -72.55,-22.67z"/>
  <path class="fil2" d="M2487.44 4228.97c0,163.24 -34.39,285.1 -103.16,365.59 -68.77,80.49 -172.88,120.73 -312.31,120.73 -49.12,0 -86.34,-2.65 -111.66,-7.94l0 -140.57c31.75,7.94 65,11.9 99.76,11.9 58.57,0 106.75,-8.6 144.54,-25.79 37.78,-17.19 66.69,-44.21 86.72,-81.05 20.03,-36.84 31.55,-87.57 34.58,-152.18l-6.81 0c-21.91,35.52 -47.23,60.46 -75.95,74.82 -28.72,14.36 -64.62,21.54 -107.69,21.54 -72.18,0 -129.04,-23.15 -170.61,-69.44 -41.57,-46.29 -62.35,-110.62 -62.35,-192.99 0,-88.8 25.22,-158.99 75.67,-210.57 50.45,-51.58 119.12,-77.37 206.03,-77.37 61.21,0 114.78,14.36 160.69,43.08 45.91,28.72 81.15,70.38 105.71,124.98 24.56,54.61 36.84,119.69 36.84,195.27zm-299.84 -222.75c-36.28,0 -64.62,12.47 -85.02,37.41 -20.4,24.94 -30.61,60.84 -30.61,107.69 0,40.06 9.26,71.8 27.77,95.23 18.52,23.43 46.67,35.14 84.45,35.14 35.52,0 65.94,-11.62 91.26,-34.86 25.32,-23.24 37.98,-49.97 37.98,-80.2 0,-44.96 -11.81,-82.94 -35.43,-113.93 -23.62,-30.99 -53.75,-46.48 -90.41,-46.48z"/>
  <path class="fil2" d="M2787.83 4582.09c-19.65,76.33 -52.9,166.83 -99.76,271.5l-124.7 0c24.56,-100.52 43.64,-195.36 57.25,-284.53l158.71 0 8.5 13.04z"/>
  <path class="fil2" d="M3486.69 4228.97c0,163.24 -34.39,285.1 -103.16,365.59 -68.77,80.49 -172.88,120.73 -312.31,120.73 -49.12,0 -86.34,-2.65 -111.66,-7.94l0 -140.57c31.75,7.94 65,11.9 99.76,11.9 58.57,0 106.75,-8.6 144.54,-25.79 37.78,-17.19 66.69,-44.21 86.72,-81.05 20.03,-36.84 31.55,-87.57 34.58,-152.18l-6.81 0c-21.91,35.52 -47.23,60.46 -75.95,74.82 -28.72,14.36 -64.62,21.54 -107.69,21.54 -72.18,0 -129.04,-23.15 -170.61,-69.44 -41.57,-46.29 -62.35,-110.62 -62.35,-192.99 0,-88.8 25.22,-158.99 75.67,-210.57 50.45,-51.58 119.12,-77.37 206.03,-77.37 61.21,0 114.78,14.36 160.69,43.08 45.91,28.72 81.15,70.38 105.71,124.98 24.56,54.61 36.84,119.69 36.84,195.27zm-299.84 -222.75c-36.28,0 -64.62,12.47 -85.02,37.41 -20.4,24.94 -30.61,60.84 -30.61,107.69 0,40.06 9.26,71.8 27.77,95.23 18.52,23.43 46.67,35.14 84.45,35.14 35.52,0 65.94,-11.62 91.26,-34.86 25.32,-23.24 37.98,-49.97 37.98,-80.2 0,-44.96 -11.81,-82.94 -35.43,-113.93 -23.62,-30.99 -53.75,-46.48 -90.41,-46.48z"/>
  <path class="fil2" d="M4149.27 4228.97c0,163.24 -34.39,285.1 -103.16,365.59 -68.77,80.49 -172.88,120.73 -312.31,120.73 -49.12,0 -86.34,-2.65 -111.66,-7.94l0 -140.57c31.75,7.94 65,11.9 99.76,11.9 58.57,0 106.75,-8.6 144.54,-25.79 37.78,-17.19 66.69,-44.21 86.72,-81.05 20.03,-36.84 31.55,-87.57 34.58,-152.18l-6.81 0c-21.91,35.52 -47.23,60.46 -75.95,74.82 -28.72,14.36 -64.62,21.54 -107.69,21.54 -72.18,0 -129.04,-23.15 -170.61,-69.44 -41.57,-46.29 -62.35,-110.62 -62.35,-192.99 0,-88.8 25.22,-158.99 75.67,-210.57 50.45,-51.58 119.12,-77.37 206.03,-77.37 61.21,0 114.78,14.36 160.69,43.08 45.91,28.72 81.15,70.38 105.71,124.98 24.56,54.61 36.84,119.69 36.84,195.27zm-299.84 -222.75c-36.28,0 -64.62,12.47 -85.02,37.41 -20.4,24.94 -30.61,60.84 -30.61,107.69 0,40.06 9.26,71.8 27.77,95.23 18.52,23.43 46.67,35.14 84.45,35.14 35.52,0 65.94,-11.62 91.26,-34.86 25.32,-23.24 37.98,-49.97 37.98,-80.2 0,-44.96 -11.81,-82.94 -35.43,-113.93 -23.62,-30.99 -53.75,-46.48 -90.41,-46.48z"/>
  <path class="fil2" d="M682.9 5720.3l-36.08 -92.18 -116.17 0 -35.68 92.18 -34.1 0 114.59 -291.02 28.35 0 113.99 291.02 -34.89 0zm-46.59 -122.51l-33.7 -89.8c-4.36,-11.37 -8.85,-25.31 -13.48,-41.83 -2.91,12.69 -7.07,26.63 -12.49,41.83l-34.1 89.8 93.77 0z"/>
  <path class="fil2" d="M881.74 5456.44c-31.85,0 -56.99,10.61 -75.43,31.82 -18.44,21.22 -27.66,50.26 -27.66,87.13 0,37.93 8.89,67.24 26.67,87.92 17.77,20.68 43.12,31.03 76.02,31.03 20.22,0 43.28,-3.63 69.19,-10.91l0 29.54c-20.09,7.53 -44.87,11.3 -74.34,11.3 -42.69,0 -75.63,-12.95 -98.83,-38.85 -23.19,-25.91 -34.79,-62.71 -34.79,-110.42 0,-29.87 5.58,-56.03 16.75,-78.5 11.17,-22.47 27.29,-39.78 48.37,-51.94 21.08,-12.16 45.89,-18.24 74.44,-18.24 30.39,0 56.96,5.55 79.69,16.65l-14.27 28.94c-21.94,-10.31 -43.88,-15.46 -65.82,-15.46z"/>
  <polygon class="fil2" points="1175.33,5720.3 1013.76,5720.3 1013.76,5430.47 1175.33,5430.47 1175.33,5460.4 1047.46,5460.4 1047.46,5553.77 1167.6,5553.77 1167.6,5583.51 1047.46,5583.51 1047.46,5690.17 1175.33,5690.17 "/>
  <polygon class="fil2" points="1239.55,5720.3 1239.55,5430.47 1273.25,5430.47 1273.25,5720.3 "/>
  <polygon class="fil2" points="1441.96,5720.3 1408.26,5720.3 1408.26,5460.4 1316.47,5460.4 1316.47,5430.47 1533.75,5430.47 1533.75,5460.4 1441.96,5460.4 "/>
  <path class="fil2" d="M1759.54 5720.3l-36.08 -92.18 -116.17 0 -35.68 92.18 -34.1 0 114.59 -291.02 28.35 0 113.99 291.02 -34.89 0zm-46.59 -122.51l-33.7 -89.8c-4.36,-11.37 -8.85,-25.31 -13.48,-41.83 -2.91,12.69 -7.07,26.63 -12.49,41.83l-34.1 89.8 93.77 0z"/>
  <path class="fil2" d="M1962.53 5720.3l-98.33 -256.92 -1.58 0c1.85,20.35 2.78,44.54 2.78,72.56l0 184.37 -31.12 0 0 -289.83 50.75 0 91.79 239.08 1.59 0 92.58 -239.08 50.35 0 0 289.83 -33.7 0 0 -186.74c0,-21.41 0.93,-44.67 2.78,-69.78l-1.58 0 -99.12 256.53 -27.16 0z"/>
  <path class="fil2" d="M2452.38 5574.99c0,46.39 -11.73,82.87 -35.19,109.43 -23.46,26.57 -56.07,39.85 -97.84,39.85 -42.69,0 -75.63,-13.05 -98.83,-39.15 -23.19,-26.1 -34.79,-62.94 -34.79,-110.52 0,-47.18 11.63,-83.76 34.89,-109.73 23.26,-25.97 56.3,-38.95 99.12,-38.95 41.63,0 74.14,13.22 97.54,39.65 23.39,26.43 35.09,62.91 35.09,109.43zm-230.96 0c0,39.25 8.36,69.02 25.08,89.31 16.72,20.29 41,30.43 72.85,30.43 32.12,0 56.37,-10.11 72.76,-30.33 16.39,-20.22 24.58,-50.02 24.58,-89.41 0,-38.99 -8.16,-68.56 -24.48,-88.71 -16.32,-20.16 -40.48,-30.23 -72.46,-30.23 -32.11,0 -56.53,10.15 -73.25,30.43 -16.72,20.29 -25.08,49.79 -25.08,88.51z"/>
  <path class="fil2" d="M2680.55 5643.18c0,25.51 -9.25,45.4 -27.75,59.67 -18.5,14.27 -43.62,21.41 -75.33,21.41 -34.37,0 -60.8,-4.43 -79.3,-13.28l0 -32.51c11.89,5.02 24.85,8.99 38.86,11.9 14.01,2.91 27.88,4.36 41.63,4.36 22.47,0 39.39,-4.26 50.75,-12.79 11.37,-8.52 17.05,-20.38 17.05,-35.58 0,-10.04 -2.02,-18.27 -6.05,-24.68 -4.03,-6.41 -10.77,-12.33 -20.22,-17.74 -9.45,-5.42 -23.82,-11.57 -43.12,-18.44 -26.96,-9.65 -46.22,-21.08 -57.79,-34.3 -11.57,-13.21 -17.35,-30.46 -17.35,-51.74 0,-22.34 8.39,-40.11 25.18,-53.33 16.78,-13.21 38.99,-19.82 66.61,-19.82 28.81,0 55.31,5.29 79.5,15.86l-10.51 29.34c-23.92,-10.04 -47.18,-15.07 -69.78,-15.07 -17.84,0 -31.78,3.83 -41.83,11.5 -10.04,7.67 -15.07,18.3 -15.07,31.92 0,10.04 1.85,18.27 5.55,24.68 3.7,6.41 9.95,12.29 18.74,17.64 8.78,5.35 22.23,11.27 40.34,17.75 30.4,10.84 51.31,22.47 62.74,34.89 11.43,12.42 17.15,28.55 17.15,48.37z"/>
  <polygon class="fil2" points="2934.5,5720.3 2900.8,5720.3 2900.8,5460.4 2809.01,5460.4 2809.01,5430.47 3026.28,5430.47 3026.28,5460.4 2934.5,5460.4 "/>
  <path class="fil2" d="M3321.46 5574.99c0,46.39 -11.73,82.87 -35.19,109.43 -23.46,26.57 -56.07,39.85 -97.84,39.85 -42.69,0 -75.63,-13.05 -98.83,-39.15 -23.19,-26.1 -34.79,-62.94 -34.79,-110.52 0,-47.18 11.63,-83.76 34.89,-109.73 23.26,-25.97 56.3,-38.95 99.12,-38.95 41.63,0 74.14,13.22 97.54,39.65 23.39,26.43 35.09,62.91 35.09,109.43zm-230.96 0c0,39.25 8.36,69.02 25.08,89.31 16.72,20.29 41,30.43 72.85,30.43 32.12,0 56.37,-10.11 72.76,-30.33 16.39,-20.22 24.58,-50.02 24.58,-89.41 0,-38.99 -8.16,-68.56 -24.48,-88.71 -16.32,-20.16 -40.48,-30.23 -72.46,-30.23 -32.11,0 -56.53,10.15 -73.25,30.43 -16.72,20.29 -25.08,49.79 -25.08,88.51z"/>
  <path class="fil2" d="M3617.43 5572.61c0,47.84 -12.98,84.42 -38.95,109.73 -25.97,25.31 -63.34,37.97 -112.11,37.97l-80.29 0 0 -289.83 88.81 0c45.06,0 80.09,12.49 105.07,37.47 24.98,24.98 37.47,59.87 37.47,104.67zm-35.68 1.19c0,-37.8 -9.48,-66.28 -28.45,-85.45 -18.96,-19.16 -47.15,-28.74 -84.55,-28.74l-48.96 0 0 231.55 41.04 0c40.18,0 70.38,-9.87 90.6,-29.64 20.22,-19.76 30.33,-49 30.33,-87.72z"/>
  <path class="fil2" d="M3933.62 5574.99c0,46.39 -11.73,82.87 -35.19,109.43 -23.46,26.57 -56.07,39.85 -97.84,39.85 -42.69,0 -75.63,-13.05 -98.83,-39.15 -23.19,-26.1 -34.79,-62.94 -34.79,-110.52 0,-47.18 11.63,-83.76 34.89,-109.73 23.26,-25.97 56.3,-38.95 99.12,-38.95 41.63,0 74.14,13.22 97.54,39.65 23.39,26.43 35.09,62.91 35.09,109.43zm-230.96 0c0,39.25 8.36,69.02 25.08,89.31 16.72,20.29 41,30.43 72.85,30.43 32.12,0 56.37,-10.11 72.76,-30.33 16.39,-20.22 24.58,-50.02 24.58,-89.41 0,-38.99 -8.16,-68.56 -24.48,-88.71 -16.32,-20.16 -40.48,-30.23 -72.46,-30.23 -32.11,0 -56.53,10.15 -73.25,30.43 -16.72,20.29 -25.08,49.79 -25.08,88.51z"/>
  <path class="fil2" d="M4161.79 5643.18c0,25.51 -9.25,45.4 -27.75,59.67 -18.5,14.27 -43.62,21.41 -75.33,21.41 -34.37,0 -60.8,-4.43 -79.3,-13.28l0 -32.51c11.89,5.02 24.85,8.99 38.86,11.9 14.01,2.91 27.88,4.36 41.63,4.36 22.47,0 39.39,-4.26 50.75,-12.79 11.37,-8.52 17.05,-20.38 17.05,-35.58 0,-10.04 -2.02,-18.27 -6.05,-24.68 -4.03,-6.41 -10.77,-12.33 -20.22,-17.74 -9.45,-5.42 -23.82,-11.57 -43.12,-18.44 -26.96,-9.65 -46.22,-21.08 -57.79,-34.3 -11.57,-13.21 -17.35,-30.46 -17.35,-51.74 0,-22.34 8.39,-40.11 25.18,-53.33 16.78,-13.21 38.99,-19.82 66.61,-19.82 28.81,0 55.31,5.29 79.5,15.86l-10.51 29.34c-23.92,-10.04 -47.18,-15.07 -69.78,-15.07 -17.84,0 -31.78,3.83 -41.83,11.5 -10.04,7.67 -15.07,18.3 -15.07,31.92 0,10.04 1.85,18.27 5.55,24.68 3.7,6.41 9.95,12.29 18.74,17.64 8.78,5.35 22.23,11.27 40.34,17.75 30.4,10.84 51.31,22.47 62.74,34.89 11.43,12.42 17.15,28.55 17.15,48.37z"/>
  <path class="fil2" d="M4578.09 5574.99c0,46.39 -11.73,82.87 -35.19,109.43 -23.46,26.57 -56.07,39.85 -97.84,39.85 -42.69,0 -75.63,-13.05 -98.83,-39.15 -23.19,-26.1 -34.79,-62.94 -34.79,-110.52 0,-47.18 11.63,-83.76 34.89,-109.73 23.26,-25.97 56.3,-38.95 99.12,-38.95 41.63,0 74.14,13.22 97.54,39.65 23.39,26.43 35.09,62.91 35.09,109.43zm-230.96 0c0,39.25 8.36,69.02 25.08,89.31 16.72,20.29 41,30.43 72.85,30.43 32.12,0 56.37,-10.11 72.76,-30.33 16.39,-20.22 24.58,-50.02 24.58,-89.41 0,-38.99 -8.16,-68.56 -24.48,-88.71 -16.32,-20.16 -40.48,-30.23 -72.46,-30.23 -32.11,0 -56.53,10.15 -73.25,30.43 -16.72,20.29 -25.08,49.79 -25.08,88.51z"/>
  <path class="fil2" d="M4806.26 5643.18c0,25.51 -9.25,45.4 -27.75,59.67 -18.5,14.27 -43.62,21.41 -75.33,21.41 -34.37,0 -60.8,-4.43 -79.3,-13.28l0 -32.51c11.89,5.02 24.85,8.99 38.86,11.9 14.01,2.91 27.88,4.36 41.63,4.36 22.47,0 39.39,-4.26 50.75,-12.79 11.37,-8.52 17.05,-20.38 17.05,-35.58 0,-10.04 -2.02,-18.27 -6.05,-24.68 -4.03,-6.41 -10.77,-12.33 -20.22,-17.74 -9.45,-5.42 -23.82,-11.57 -43.12,-18.44 -26.96,-9.65 -46.22,-21.08 -57.79,-34.3 -11.57,-13.21 -17.35,-30.46 -17.35,-51.74 0,-22.34 8.39,-40.11 25.18,-53.33 16.78,-13.21 38.99,-19.82 66.61,-19.82 28.81,0 55.31,5.29 79.5,15.86l-10.51 29.34c-23.92,-10.04 -47.18,-15.07 -69.78,-15.07 -17.84,0 -31.78,3.83 -41.83,11.5 -10.04,7.67 -15.07,18.3 -15.07,31.92 0,10.04 1.85,18.27 5.55,24.68 3.7,6.41 9.95,12.29 18.74,17.64 8.78,5.35 22.23,11.27 40.34,17.75 30.4,10.84 51.31,22.47 62.74,34.89 11.43,12.42 17.15,28.55 17.15,48.37z"/>
  <path class="fil3" d="M1206.18 5977.44c-47.63,0 -84.5,17.89 -110.63,53.68 -26.13,35.79 -39.19,85.66 -39.19,149.62 0,133.08 49.94,199.62 149.82,199.62 41.91,0 92.67,-10.48 152.27,-31.43l0 106.14c-48.99,20.41 -103.69,30.62 -164.11,30.62 -86.82,0 -153.22,-26.33 -199.21,-78.99 -45.99,-52.66 -68.99,-128.25 -68.99,-226.77 0,-62.05 11.3,-116.41 33.88,-163.08 22.59,-46.67 55.05,-82.46 97.36,-107.36 42.32,-24.9 91.92,-37.35 148.8,-37.35 57.97,0 116.21,14.02 174.72,42.05l-40.82 102.87c-22.32,-10.61 -44.77,-19.87 -67.35,-27.76 -22.59,-7.89 -44.77,-11.84 -66.54,-11.84z"/>
  <path class="fil3" d="M1850.74 6477.51l-43.27 -142.06 -217.58 0 -43.27 142.06 -136.35 0 210.64 -599.27 154.72 0 211.46 599.27 -136.35 0zm-73.48 -248.2c-40.01,-128.72 -62.53,-201.52 -67.56,-218.4 -5.04,-16.87 -8.65,-30.21 -10.82,-40.01 -8.98,34.83 -34.7,120.97 -77.15,258.4l155.54 0z"/>
  <path class="fil3" d="M2188.73 6145.63l40.82 0c40.01,0 69.53,-6.67 88.59,-20 19.05,-13.34 28.57,-34.29 28.57,-62.87 0,-28.3 -9.73,-48.44 -29.19,-60.42 -19.46,-11.97 -49.6,-17.96 -90.42,-17.96l-38.38 0 0 161.25zm0 102.87l0 229.01 -126.55 0 0 -596.82 173.9 0c81.1,0 141.11,14.76 180.03,44.29 38.92,29.53 58.38,74.37 58.38,134.51 0,35.11 -9.66,66.34 -28.99,93.69 -19.32,27.35 -46.67,48.78 -82.05,64.3 89.81,134.17 148.32,220.85 175.54,260.03l-140.43 0 -142.47 -229.01 -67.36 0z"/>
  <polygon class="fil3" points="2844.32,6477.51 2717.77,6477.51 2717.77,5986.01 2555.71,5986.01 2555.71,5880.69 3006.38,5880.69 3006.38,5986.01 2844.32,5986.01 "/>
  <path class="fil3" d="M3639.93 6178.28c0,98.79 -24.5,174.72 -73.48,227.79 -48.99,53.07 -119.2,79.6 -210.64,79.6 -91.44,0 -161.65,-26.53 -210.64,-79.6 -48.99,-53.07 -73.48,-129.27 -73.48,-228.6 0,-99.33 24.56,-175.2 73.69,-227.58 49.12,-52.39 119.54,-78.59 211.25,-78.59 91.71,0 161.86,26.4 210.44,79.19 48.58,52.8 72.87,128.73 72.87,227.79zm-435.57 0c0,66.68 12.66,116.89 37.97,150.63 25.31,33.75 63.14,50.62 113.48,50.62 100.97,0 151.45,-67.09 151.45,-201.25 0,-134.44 -50.21,-201.66 -150.63,-201.66 -50.35,0 -88.31,16.94 -113.89,50.82 -25.58,33.88 -38.37,84.16 -38.37,150.84zm84.91 -388.22c-8.44,0 -16.53,3.6 -24.29,10.82 -7.75,7.21 -13.4,18.17 -16.94,32.86l-60.83 0c3,-39.46 14.22,-70.35 33.68,-92.66 19.45,-22.32 45.24,-33.48 77.36,-33.48 11.16,0 22.11,2.25 32.86,6.74 10.75,4.49 21.36,9.39 31.84,14.7 10.47,5.31 20.75,10.14 30.82,14.49 10.07,4.36 20,6.53 29.8,6.53 8.44,0 16.53,-3.54 24.29,-10.61 7.76,-7.08 13.4,-17.96 16.94,-32.66l60.83 0c-2.99,39.47 -14.36,70.35 -34.09,92.67 -19.73,22.31 -45.38,33.47 -76.95,33.47 -11.16,0 -22.11,-2.24 -32.86,-6.74 -10.75,-4.49 -21.36,-9.39 -31.84,-14.7 -10.47,-5.31 -20.75,-10.2 -30.82,-14.7 -10.07,-4.49 -20,-6.74 -29.8,-6.74z"/>
  <polygon class="fil3" points="4107.33,6477.51 3763.6,6477.51 3763.6,5880.69 4107.33,5880.69 4107.33,5984.38 3890.15,5984.38 3890.15,6115.42 4092.22,6115.42 4092.22,6219.11 3890.15,6219.11 3890.15,6373.01 4107.33,6373.01 "/>
  <path class="fil3" d="M4584.11 6311.77c0,53.89 -19.39,96.34 -58.17,127.37 -38.78,31.02 -92.74,46.54 -161.86,46.54 -63.68,0 -120.02,-11.97 -169.01,-35.92l0 -117.57c40.28,17.96 74.37,30.62 102.26,37.96 27.9,7.35 53.41,11.02 76.54,11.02 27.76,0 49.06,-5.31 63.89,-15.92 14.83,-10.61 22.25,-26.4 22.25,-47.35 0,-11.7 -3.26,-22.11 -9.79,-31.23 -6.53,-9.12 -16.13,-17.89 -28.78,-26.33 -12.66,-8.44 -38.44,-21.91 -77.36,-40.42 -36.47,-17.15 -63.82,-33.61 -82.05,-49.4 -18.24,-15.78 -32.8,-34.15 -43.68,-55.11 -10.88,-20.95 -16.33,-45.45 -16.33,-73.48 0,-52.8 17.89,-94.3 53.68,-124.51 35.79,-30.21 85.25,-45.31 148.39,-45.31 31.03,0 60.62,3.68 88.79,11.02 28.17,7.35 57.62,17.69 88.38,31.02l-40.82 98.38c-31.84,-13.06 -58.17,-22.18 -78.99,-27.35 -20.82,-5.17 -41.3,-7.75 -61.44,-7.75 -23.95,0 -42.32,5.58 -55.11,16.74 -12.79,11.16 -19.19,25.72 -19.19,43.68 0,11.16 2.59,20.89 7.76,29.19 5.17,8.3 13.4,16.33 24.7,24.09 11.29,7.75 38.03,21.7 80.22,41.84 55.79,26.67 94.03,53.41 114.71,80.22 20.68,26.81 31.02,59.67 31.02,98.58z"/>
 </g>
</svg>
