<?xml version="1.0" encoding="UTF-8"?>
<!DOCTYPE svg PUBLIC "-//W3C//DTD SVG 1.1//EN" "http://www.w3.org/Graphics/SVG/1.1/DTD/svg11.dtd">
<!-- Creator: CorelDRAW -->
<svg xmlns="http://www.w3.org/2000/svg" xml:space="preserve" width="28.8396mm" height="21.8867mm" version="1.1" style="shape-rendering:geometricPrecision; text-rendering:geometricPrecision; image-rendering:optimizeQuality; fill-rule:evenodd; clip-rule:evenodd"
viewBox="0 0 155.6 118.09"
 xmlns:xlink="http://www.w3.org/1999/xlink"
 xmlns:xodm="http://www.corel.com/coreldraw/odm/2003">
 <defs>
  <style type="text/css">
   <![CDATA[
    .fil0 {fill:white;fill-rule:nonzero}
   ]]>
  </style>
 </defs>
 <g id="Camada_x0020_1">
  <metadata id="CorelCorpID_0Corel-Layer"/>
  <path class="fil0" d="M154.21 98.79c-1.95,-4.92 -6.73,-7.79 -12.63,-7.79 0,0 -129.57,0 -129.57,0 -10.57,0 -14.79,11.81 -10.13,19.49 0.93,2.31 2.54,4.38 4.9,5.88 3.44,2.19 8.05,1.66 11.96,1.66 0,0 124.58,0 124.58,0 5.94,0 10.76,-3.61 12.28,-9.01l0 -6.98c-0.32,-1.19 -0.79,-2.27 -1.39,-3.25z"/>
  <path class="fil0" d="M6.78 25.38c3.44,2.19 8.05,1.66 11.96,1.66 0,0 124.58,0 124.58,0 5.94,0 10.76,-3.61 12.28,-9.01l0 -6.98c-0.32,-1.19 -0.79,-2.27 -1.39,-3.25 -1.95,-4.92 -6.73,-7.79 -12.63,-7.79 0,0 -129.57,0 -129.57,0 -10.57,0 -14.79,11.81 -10.13,19.49 0.93,2.31 2.54,4.39 4.9,5.89z"/>
  <path class="fil0" d="M154.22 53.29c-1.96,-4.92 -6.73,-7.79 -12.64,-7.79 0,0 -129.57,0 -129.57,0 -10.57,0 -14.79,11.81 -10.13,19.49 0.93,2.31 2.54,4.38 4.9,5.88 3.44,2.19 8.05,1.66 11.96,1.66 0,0 124.58,0 124.58,0 5.94,0 10.76,-3.61 12.28,-9.01l0 -6.98c-0.32,-1.18 -0.78,-2.27 -1.38,-3.25z"/>
  <path class="fil0" d="M6.78 25.38c3.44,2.19 8.05,1.66 11.96,1.66 0,0 124.58,0 124.58,0 5.94,0 10.76,-3.61 12.28,-9.01l0 -6.98c-0.32,-1.19 -0.79,-2.27 -1.39,-3.25 -1.95,-4.92 -6.73,-7.79 -12.63,-7.79 0,0 -129.57,0 -129.57,0 -10.57,0 -14.79,11.81 -10.13,19.49 0.93,2.31 2.54,4.39 4.9,5.89zm5.31 -22.93c0,0 130.57,0 130.57,0 6.13,0 10.07,4.7 10.07,10.61 -0.21,5.57 -4.49,9.7 -10.07,9.7 0,0 -125.87,0 -125.87,0 -6.03,0 -12.24,-0.23 -14.24,-7.52 -1.72,-6.26 3.01,-12.79 9.54,-12.79z"/>
  <path class="fil0" d="M154.22 53.29c-1.96,-4.92 -6.73,-7.79 -12.64,-7.79 0,0 -129.57,0 -129.57,0 -10.57,0 -14.79,11.81 -10.13,19.49 0.93,2.31 2.54,4.38 4.9,5.88 3.44,2.19 8.05,1.66 11.96,1.66 0,0 124.58,0 124.58,0 5.94,0 10.76,-3.61 12.28,-9.01l0 -6.98c-0.32,-1.18 -0.78,-2.27 -1.38,-3.25zm-11.56 14.96c0,0 -125.87,0 -125.87,0 -6.03,0 -12.24,-0.23 -14.24,-7.51 -1.72,-6.26 3.01,-12.79 9.54,-12.79 0,0 130.57,0 130.57,0 6.13,0 10.07,4.7 10.07,10.6 -0.21,5.58 -4.49,9.7 -10.07,9.7z"/>
  <path class="fil0" d="M154.21 98.79c-1.95,-4.92 -6.73,-7.79 -12.63,-7.79 0,0 -129.57,0 -129.57,0 -10.57,0 -14.79,11.81 -10.13,19.49 0.93,2.31 2.54,4.38 4.9,5.88 3.44,2.19 8.05,1.66 11.96,1.66 0,0 124.58,0 124.58,0 5.94,0 10.76,-3.61 12.28,-9.01l0 -6.98c-0.32,-1.19 -0.79,-2.27 -1.39,-3.25zm-11.55 14.96c0,0 -125.87,0 -125.87,0 -6.03,0 -12.24,-0.23 -14.24,-7.52 -1.72,-6.26 3.01,-12.79 9.54,-12.79 0,0 130.57,0 130.57,0 6.13,0 10.07,4.7 10.07,10.61 -0.21,5.57 -4.49,9.7 -10.07,9.7z"/>
 </g>
</svg>
